<svg id="Grupo_672" data-name="Grupo 672" xmlns="http://www.w3.org/2000/svg" width="301.276" height="264.655" viewBox="0 0 301.276 264.655">
  <path id="Caminho_227" data-name="Caminho 227" d="M908.476,742.464V716.237S918.7,734.831,908.476,742.464Z" transform="translate(-646.002 -487.387)" fill="#ddd"/>
  <path id="Caminho_228" data-name="Caminho 228" d="M876.248,757.379l-19.32-17.736S877.537,744.688,876.248,757.379Z" transform="translate(-613.142 -502.307)" fill="#ddd"/>
  <path id="Caminho_229" data-name="Caminho 229" d="M282.972,742.464V716.237S272.751,734.831,282.972,742.464Z" transform="translate(-244.376 -487.387)" fill="#ddd"/>
  <path id="Caminho_230" data-name="Caminho 230" d="M289.116,757.379l19.32-17.736S287.827,744.688,289.116,757.379Z" transform="translate(-251.151 -502.307)" fill="#ddd"/>
  <path id="Caminho_231" data-name="Caminho 231" d="M551.821,145.568h-1.4V107.207a22.2,22.2,0,0,0-22.2-22.2H446.946a22.2,22.2,0,0,0-22.2,22.2V317.656a22.2,22.2,0,0,0,22.2,22.2h81.272a22.2,22.2,0,0,0,22.2-22.2V172.874h1.4Z" transform="translate(-337.645 -85.005)" fill="#3f3d56"/>
  <path id="Caminho_232" data-name="Caminho 232" d="M539.886,100.938H529.277a7.877,7.877,0,0,1-7.293,10.852h-46.56a7.877,7.877,0,0,1-7.293-10.852h-9.909a16.58,16.58,0,0,0-16.58,16.58v210.14a16.58,16.58,0,0,0,16.58,16.58h81.664a16.58,16.58,0,0,0,16.58-16.58h0V117.518A16.58,16.58,0,0,0,539.886,100.938Z" transform="translate(-348.416 -95.161)" fill="#fff"/>
  <path id="Caminho_233" data-name="Caminho 233" d="M542.168,698.122H464.6c-8.913,0-16.165-6.472-16.165-14.428V673.25c0-6.341,5.775-11.5,12.873-11.5h84.155c7.1,0,12.873,5.159,12.873,11.5v10.445C558.332,691.65,551.081,698.122,542.168,698.122Z" transform="translate(-352.744 -452.654)" fill="#ddd"/>
  <path id="Caminho_234" data-name="Caminho 234" d="M483.03,243.315h-17.3a1.171,1.171,0,0,1-1.169-1.169v-17.3a1.171,1.171,0,0,1,1.169-1.169h17.3a1.171,1.171,0,0,1,1.169,1.169v17.3A1.171,1.171,0,0,1,483.03,243.315Z" transform="translate(-363.024 -173.4)" fill="#206a5d"/>
  <path id="Caminho_235" data-name="Caminho 235" d="M555.266,243.315h-17.3a1.171,1.171,0,0,1-1.169-1.169v-17.3a1.171,1.171,0,0,1,1.169-1.169h17.3a1.171,1.171,0,0,1,1.169,1.169v17.3A1.171,1.171,0,0,1,555.266,243.315Z" transform="translate(-409.071 -173.4)" fill="#ddd"/>
  <path id="Caminho_236" data-name="Caminho 236" d="M627.5,243.315H610.2a1.171,1.171,0,0,1-1.169-1.169v-17.3a1.171,1.171,0,0,1,1.169-1.169h17.3a1.171,1.171,0,0,1,1.169,1.169v17.3A1.171,1.171,0,0,1,627.5,243.315Z" transform="translate(-455.118 -173.4)" fill="#ddd"/>
  <path id="Caminho_237" data-name="Caminho 237" d="M699.738,243.315h-17.3a1.171,1.171,0,0,1-1.169-1.169v-17.3a1.171,1.171,0,0,1,1.169-1.169h17.3a1.171,1.171,0,0,1,1.169,1.169v17.3A1.171,1.171,0,0,1,699.738,243.315Z" transform="translate(-501.165 -173.4)" fill="#ddd"/>
  <path id="Caminho_238" data-name="Caminho 238" d="M482.859,331.675h-17.3a1.17,1.17,0,0,1-1.169-1.169V313.2a1.17,1.17,0,0,1,1.169-1.169h17.3a1.171,1.171,0,0,1,1.169,1.169v17.3A1.171,1.171,0,0,1,482.859,331.675Z" transform="translate(-362.915 -229.725)" fill="#ddd"/>
  <path id="Caminho_239" data-name="Caminho 239" d="M555.1,331.675h-17.3a1.171,1.171,0,0,1-1.169-1.169V313.2a1.171,1.171,0,0,1,1.169-1.169h17.3a1.171,1.171,0,0,1,1.169,1.169v17.3A1.171,1.171,0,0,1,555.1,331.675Z" transform="translate(-408.962 -229.725)" fill="#ddd"/>
  <path id="Caminho_240" data-name="Caminho 240" d="M627.331,331.675h-17.3a1.17,1.17,0,0,1-1.169-1.169V313.2a1.171,1.171,0,0,1,1.169-1.169h17.3A1.171,1.171,0,0,1,628.5,313.2v17.3A1.171,1.171,0,0,1,627.331,331.675Z" transform="translate(-455.009 -229.725)" fill="#206a5d"/>
  <path id="Caminho_241" data-name="Caminho 241" d="M699.568,331.675h-17.3a1.17,1.17,0,0,1-1.169-1.169V313.2a1.17,1.17,0,0,1,1.169-1.169h17.3a1.17,1.17,0,0,1,1.169,1.169v17.3A1.17,1.17,0,0,1,699.568,331.675Z" transform="translate(-501.057 -229.725)" fill="#206a5d"/>
  <path id="Caminho_242" data-name="Caminho 242" d="M482.688,420.036h-17.3a1.171,1.171,0,0,1-1.169-1.169v-17.3a1.17,1.17,0,0,1,1.169-1.169h17.3a1.171,1.171,0,0,1,1.169,1.169v17.3A1.171,1.171,0,0,1,482.688,420.036Z" transform="translate(-362.806 -286.051)" fill="#ddd"/>
  <path id="Caminho_243" data-name="Caminho 243" d="M554.924,420.036h-17.3a1.171,1.171,0,0,1-1.169-1.169v-17.3a1.17,1.17,0,0,1,1.169-1.169h17.3a1.17,1.17,0,0,1,1.169,1.169v17.3A1.171,1.171,0,0,1,554.924,420.036Z" transform="translate(-408.853 -286.051)" fill="#ddd"/>
  <path id="Caminho_244" data-name="Caminho 244" d="M627.161,420.036h-17.3a1.17,1.17,0,0,1-1.169-1.169v-17.3a1.17,1.17,0,0,1,1.169-1.169h17.3a1.17,1.17,0,0,1,1.169,1.169v17.3A1.171,1.171,0,0,1,627.161,420.036Z" transform="translate(-454.901 -286.051)" fill="#ddd"/>
  <path id="Caminho_245" data-name="Caminho 245" d="M699.4,420.036h-17.3a1.171,1.171,0,0,1-1.169-1.169v-17.3a1.17,1.17,0,0,1,1.169-1.169h17.3a1.17,1.17,0,0,1,1.169,1.169v17.3A1.171,1.171,0,0,1,699.4,420.036Z" transform="translate(-500.948 -286.051)" fill="#ddd"/>
  <path id="Caminho_246" data-name="Caminho 246" d="M482.518,508.4h-17.3a1.17,1.17,0,0,1-1.169-1.169v-17.3a1.171,1.171,0,0,1,1.169-1.169h17.3a1.171,1.171,0,0,1,1.169,1.169v17.3a1.171,1.171,0,0,1-1.169,1.169Z" transform="translate(-362.697 -342.377)" fill="#ddd"/>
  <path id="Caminho_247" data-name="Caminho 247" d="M554.754,508.4h-17.3a1.17,1.17,0,0,1-1.169-1.169v-17.3a1.171,1.171,0,0,1,1.169-1.169h17.3a1.17,1.17,0,0,1,1.169,1.169v17.3a1.171,1.171,0,0,1-1.169,1.169Z" transform="translate(-408.744 -342.377)" fill="#ddd"/>
  <path id="Caminho_248" data-name="Caminho 248" d="M626.99,508.4h-17.3a1.17,1.17,0,0,1-1.169-1.169v-17.3a1.171,1.171,0,0,1,1.169-1.169h17.3a1.171,1.171,0,0,1,1.169,1.169v17.3a1.171,1.171,0,0,1-1.169,1.169Z" transform="translate(-454.792 -342.377)" fill="#ddd"/>
  <path id="Caminho_249" data-name="Caminho 249" d="M699.226,508.4h-17.3a1.171,1.171,0,0,1-1.169-1.169v-17.3a1.171,1.171,0,0,1,1.169-1.169h17.3a1.171,1.171,0,0,1,1.169,1.169v17.3a1.171,1.171,0,0,1-1.169,1.169Z" transform="translate(-500.839 -342.377)" fill="#ddd"/>
  <path id="Caminho_250" data-name="Caminho 250" d="M483.03,705.756h-17.3a1.17,1.17,0,0,1-1.169-1.169v-17.3a1.171,1.171,0,0,1,1.169-1.169h17.3a1.17,1.17,0,0,1,1.169,1.169v17.3A1.17,1.17,0,0,1,483.03,705.756Z" transform="translate(-363.024 -468.185)" fill="#fff"/>
  <path id="Caminho_251" data-name="Caminho 251" d="M555.266,705.756h-17.3a1.171,1.171,0,0,1-1.169-1.169v-17.3a1.171,1.171,0,0,1,1.169-1.169h17.3a1.171,1.171,0,0,1,1.169,1.169v17.3A1.171,1.171,0,0,1,555.266,705.756Z" transform="translate(-409.071 -468.185)" fill="#fff"/>
  <path id="Caminho_252" data-name="Caminho 252" d="M627.5,705.756H610.2a1.171,1.171,0,0,1-1.169-1.169v-17.3a1.171,1.171,0,0,1,1.169-1.169h17.3a1.171,1.171,0,0,1,1.169,1.169v17.3A1.17,1.17,0,0,1,627.5,705.756Z" transform="translate(-455.118 -468.185)" fill="#fff"/>
  <path id="Caminho_253" data-name="Caminho 253" d="M699.738,705.756h-17.3a1.17,1.17,0,0,1-1.169-1.169v-17.3a1.171,1.171,0,0,1,1.169-1.169h17.3a1.17,1.17,0,0,1,1.169,1.169v17.3A1.17,1.17,0,0,1,699.738,705.756Z" transform="translate(-501.165 -468.185)" fill="#fff"/>
  <circle id="Elipse_34" data-name="Elipse 34" cx="2.338" cy="2.338" r="2.338" transform="translate(139.82 196.417)" fill="#ddd"/>
  <circle id="Elipse_35" data-name="Elipse 35" cx="2.338" cy="2.338" r="2.338" transform="translate(148.238 196.417)" fill="#ddd"/>
  <circle id="Elipse_36" data-name="Elipse 36" cx="2.338" cy="2.338" r="2.338" transform="translate(156.655 196.417)" fill="#ddd"/>
  <path id="Caminho_254" data-name="Caminho 254" d="M485.413,787.73H184.863a.363.363,0,1,1,0-.725h300.55a.363.363,0,0,1,0,.725Z" transform="translate(-184.5 -532.498)" fill="#ddd"/>
  <path id="Caminho_255" data-name="Caminho 255" d="M496.549,550.953a4.731,4.731,0,0,0-.638-7.226l4.566-16.18-8.326,2.648-3.06,14.959a4.757,4.757,0,0,0,7.457,5.8Z" transform="translate(-378.228 -367.105)" fill="#ffb7b7"/>
  <path id="Caminho_256" data-name="Caminho 256" d="M498.909,454a2.165,2.165,0,0,1-.451.038l-7.987-.16a2.117,2.117,0,0,1-2.052-2.427l8.1-54.741a6.711,6.711,0,0,1,6.619-5.7h0a6.676,6.676,0,0,1,6.464,8.275l-5.743,23.26L500.6,452.156A2.105,2.105,0,0,1,498.909,454Z" transform="translate(-378.22 -280.073)" fill="#87a83e"/>
  <path id="Caminho_257" data-name="Caminho 257" d="M342.1,687.961h4.445l2.115-17.144H342.1Z" transform="translate(-218.075 -427.615)" fill="#ffb7b7"/>
  <path id="Caminho_258" data-name="Caminho 258" d="M523.478,799.107h8.754a5.578,5.578,0,0,1,5.578,5.578v.182H523.478Z" transform="translate(-400.583 -540.213)" fill="#2f2e41"/>
  <path id="Caminho_259" data-name="Caminho 259" d="M394.382,684.167l4.417.5,4.012-16.8-6.519-.731Z" transform="translate(-251.4 -425.265)" fill="#ffb7b7"/>
  <path id="Caminho_260" data-name="Caminho 260" d="M575.092,794.8l8.7.975h0a5.579,5.579,0,0,1,4.922,6.165l-.02.18-14.242-1.6Z" transform="translate(-433.075 -537.468)" fill="#2f2e41"/>
  <path id="Caminho_261" data-name="Caminho 261" d="M509.943,537.12s-6.094,13.49-.712,22.252l3.206,68.219H519.8l7.141-55.107L539.627,588.8,531.9,626.877l9,.505L553.4,588.8s-9.607-42.544-12.779-43.569l-2.085-9.726Z" transform="translate(-390.085 -372.179)" fill="#2f2e41"/>
  <path id="Caminho_262" data-name="Caminho 262" d="M505.826,572.3s-5.49,6.3,9.012,8.476,29.729-1.088,30.091-5.438S505.826,572.3,505.826,572.3Z" transform="translate(-388.681 -395.515)" fill="#cbcbcb"/>
  <path id="Caminho_263" data-name="Caminho 263" d="M679.66,349.3a4.21,4.21,0,0,1-5.1,3.961l-5.482,7.905L663.465,359l7.9-11.055a4.232,4.232,0,0,1,8.3,1.348Z" transform="translate(-489.818 -250.664)" fill="#ffb7b7"/>
  <path id="Caminho_264" data-name="Caminho 264" d="M531.315,378.947l-7.75-3.506-9.93.71s-11.971,14-7.258,27.411l-2.9,46.768c18.49,5.076,26.895-4.444,40.243-.363L539.6,397.99Z" transform="translate(-387.833 -270.145)" fill="#87a83e"/>
  <path id="Caminho_265" data-name="Caminho 265" d="M565.976,378.627l5.18-3.406s7.2-1.088,10.071,1.7c0,0,9.762.817,12.12,3.254l2.6.585,8.624-11.167,5.277,2.867-7.614,20.665-22.794,1.135Z" transform="translate(-427.674 -266.419)" fill="#87a83e"/>
  <circle id="Elipse_37" data-name="Elipse 37" cx="12.234" cy="12.234" r="12.234" transform="translate(117.618 85.761) rotate(-28.663)" fill="#ffb7b7"/>
  <path id="Caminho_266" data-name="Caminho 266" d="M517.552,297.38c2.184-3.928,4.913-6.471,9.406-6.379s8.38-.086,10.4,3.928a6.6,6.6,0,0,0,.777-3.255,3.728,3.728,0,0,1,1.646,3.75,2.723,2.723,0,0,0,1.344-2.235c1.5.5,1.889,2.612,1.131,4a7.641,7.641,0,0,1-3.674,2.866c-1.428.678-.769,4.262-1.7,5.538a14.934,14.934,0,0,0-1.387,2.994.2.2,0,0,1-.089.093,2.636,2.636,0,0,0-1.462,2.7.439.439,0,0,1-.014.257c-1.273,2.4-2.646,4.906-4.953,6.337a8.213,8.213,0,0,1-6.17.954,10.722,10.722,0,0,1-5.866-4.055,20.6,20.6,0,0,1-3.126-6.524,12.211,12.211,0,0,1-.589-6.346c.5-2.092,2.192-4.029,4.337-4.19" transform="translate(-393.912 -216.317)" fill="#2f2e41"/>
</svg>
