<svg xmlns="http://www.w3.org/2000/svg" width="280.999" height="233.326" viewBox="0 0 280.999 233.326">
  <g id="Grupo_669" data-name="Grupo 669" transform="translate(0 0.123)">
    <circle id="Elipse_24" data-name="Elipse 24" cx="5.88" cy="5.88" r="5.88" transform="translate(47.089 3.501)" fill="#ddd"/>
    <circle id="Elipse_25" data-name="Elipse 25" cx="3.709" cy="3.709" r="3.709" transform="translate(76.358 18.424)" fill="#ddd"/>
    <circle id="Elipse_26" data-name="Elipse 26" cx="2.649" cy="2.649" r="2.649" transform="translate(102.524 30.642)" fill="#ddd"/>
    <circle id="Elipse_27" data-name="Elipse 27" cx="5.88" cy="5.88" r="5.88" transform="translate(223.911 3.501)" fill="#ddd"/>
    <circle id="Elipse_28" data-name="Elipse 28" cx="3.709" cy="3.709" r="3.709" transform="translate(198.984 18.424)" fill="#ddd"/>
    <circle id="Elipse_29" data-name="Elipse 29" cx="2.649" cy="2.649" r="2.649" transform="translate(174.938 30.642)" fill="#ddd"/>
    <ellipse id="Elipse_30" data-name="Elipse 30" cx="31.482" cy="3.587" rx="31.482" ry="3.587" transform="translate(112.604 205.322)" fill="#f1f1f1"/>
    <path id="Caminho_176" data-name="Caminho 176" d="M344.284,274.293l-212.773-1.434,2.147-145.813,212.777,3.133Z" transform="translate(-88.204 -85.296)" fill="#ddd"/>
    <path id="Caminho_177" data-name="Caminho 177" d="M643.9,2.447,539.446,44.631V188.59L643.9,232.782Z" transform="translate(-363.902 -1.088)" fill="#206a5d" stroke="#206a5d" stroke-miterlimit="10" stroke-width="2"/>
    <line id="Linha_9" data-name="Linha 9" x2="74.993" y2="17.409" transform="translate(184.249 156.701)" fill="none" stroke="#fff" stroke-miterlimit="10" stroke-width="2"/>
    <line id="Linha_10" data-name="Linha 10" x2="74.993" y2="11.383" transform="translate(184.249 145.319)" fill="none" stroke="#fff" stroke-miterlimit="10" stroke-width="2"/>
    <line id="Linha_11" data-name="Linha 11" x2="74.993" y2="8.035" transform="translate(184.249 133.266)" fill="none" stroke="#fff" stroke-miterlimit="10" stroke-width="2"/>
    <path id="Caminho_178" data-name="Caminho 178" d="M643.085,283.285v17.409l-60.262-4.017V283.285Z" transform="translate(-393.218 -190.889)" fill="#789639"/>
    <path id="Caminho_179" data-name="Caminho 179" d="M643.085,283.285v17.409l-60.262-4.017v-.67l58.923,3.348v-16.07Z" transform="translate(-393.218 -190.889)" opacity="0.2"/>
    <path id="Caminho_180" data-name="Caminho 180" d="M1,2.447,105.454,44.631V188.59L1,232.782Z" transform="translate(0 -1.088)" fill="#206a5d" stroke="#206a5d" stroke-miterlimit="10" stroke-width="2"/>
    <line id="Linha_12" data-name="Linha 12" x1="74.993" y2="17.409" transform="translate(21.757 156.701)" fill="none" stroke="#fff" stroke-miterlimit="10" stroke-width="2"/>
    <line id="Linha_13" data-name="Linha 13" x1="74.993" y2="11.383" transform="translate(21.757 145.319)" fill="none" stroke="#fff" stroke-miterlimit="10" stroke-width="2"/>
    <line id="Linha_14" data-name="Linha 14" x1="74.993" y2="8.035" transform="translate(21.757 133.266)" fill="none" stroke="#fff" stroke-miterlimit="10" stroke-width="2"/>
    <path id="Caminho_181" data-name="Caminho 181" d="M93.95,283.285v17.409l60.262-4.017V283.285Z" transform="translate(-62.819 -190.889)" fill="#86a73f"/>
    <path id="Caminho_182" data-name="Caminho 182" d="M93.95,283.285v17.409l60.262-4.017v-.67l-58.923,3.348v-16.07Z" transform="translate(-62.819 -190.889)" opacity="0.2"/>
    <path id="Caminho_194" data-name="Caminho 194" d="M0,0,6.548.081,52.388.644" transform="translate(115.186 55.198)" fill="none" stroke="#86a73f" stroke-width="2"/>
    <path id="Caminho_183" data-name="Caminho 183" d="M353.9,165.74l.448-.469-2.315-2.2,2.368-2.148-.436-.48-2.884,2.616Z" transform="translate(-236.598 -107.864)" fill="#87a740" stroke="#87a740" stroke-width="1"/>
    <path id="Caminho_184" data-name="Caminho 184" d="M507.222,167.565l-.436-.48,2.368-2.147-2.315-2.206.448-.469,2.818,2.686Z" transform="translate(-341.829 -109.097)" fill="#3f3d56" stroke="#86a73f" stroke-width="1"/>
    <circle id="Elipse_31" data-name="Elipse 31" cx="4.384" cy="4.384" r="4.384" transform="translate(136.997 51.137)" fill="#87a740"/>
    <path id="Caminho_185" data-name="Caminho 185" d="M582.8,692.069s-1.2,5.181-.8,7.173a47.014,47.014,0,0,1,.4,6.376h1.2v-4.782s3.188,1.594,3.985,3.985,9.166,1.594,9.564.8-3.985-2.391-3.985-2.391l-3.586-10.759Z" transform="translate(-447.284 -497.307)" fill="#2f2e41"/>
    <path id="Caminho_186" data-name="Caminho 186" d="M576.028,533.887s1.992,7.173,1.992,9.963-1.594,38.655,0,38.655,7.97.8,8.369-.8-.8-16.339,0-17.933,6.376-35.467,5.978-35.865S578.021,526.316,576.028,533.887Z" transform="translate(-443.3 -386.149)" fill="#2f2e41"/>
    <path id="Caminho_187" data-name="Caminho 187" d="M569.986,522.786s-3.586,9.564-.4,9.564,5.181-2.79,7.572-1.993,9.564-9.166,9.564-9.166Z" transform="translate(-438.054 -381.822)" fill="#3f3d56"/>
    <circle id="Elipse_32" data-name="Elipse 32" cx="6.376" cy="6.376" r="6.376" transform="translate(140.499 88.162)" fill="#ffb9b9"/>
    <path id="Caminho_188" data-name="Caminho 188" d="M609.564,388.624s-2.79,9.165-1.993,10.361-7.572-.4-7.572-.4,2.789-7.571,2.391-9.166S609.564,388.624,609.564,388.624Z" transform="translate(-459.501 -292.093)" fill="#ffb9b9"/>
    <path id="Caminho_189" data-name="Caminho 189" d="M580.74,406.986s-3.587-1.2-4.782,0-5.579,29.489-8.369,32.279-4.782,6.775-2.391,7.173,21.918,2.79,22.715,1.594.6-12.951.2-15.741S584.725,407.384,580.74,406.986Z" transform="translate(-435.26 -304.278)" fill="#86a73f"/>
    <path id="Caminho_190" data-name="Caminho 190" d="M436.869,433.474l1.594,3.985,3.586-2.79-.4-2.789Z" transform="translate(-294.576 -291.315)" fill="#ffb9b9"/>
    <path id="Caminho_191" data-name="Caminho 191" d="M584.4,424.516s-.2-4.981-2.59,1.395-7.571,14.745-3.188,21.121,4.5,9.158,6.575,8.966,8.568,2.192,8.568,1.395-7.572-13.151-7.572-13.151a7.337,7.337,0,0,1,1.992-6.376C590.976,435.077,589.581,425.712,584.4,424.516Z" transform="translate(-443.901 -315.233)" opacity="0.1"/>
    <path id="Caminho_192" data-name="Caminho 192" d="M583.668,412.945s-4.384-.8-6.775,5.579-7.571,14.745-3.188,21.121,6.618,12.737,8.689,12.545,6.454-1.387,6.454-2.184-7.572-13.151-7.572-13.151a7.336,7.336,0,0,1,1.992-6.376C586.059,427.689,588.848,414.14,583.668,412.945Z" transform="translate(-440.578 -308.643)" fill="#87a83e"/>
    <path id="Caminho_193" data-name="Caminho 193" d="M572.365,353.323c-3.279-.463-6.511,1.615-8.325,4.385s-2.47,6.125-2.948,9.4a11.244,11.244,0,0,1-.674,2.893c-.793,1.82-2.587,3.195-2.879,5.158a11.1,11.1,0,0,0,.52,3.708A13.593,13.593,0,0,1,556,388.427c-.779,1.269-1.915,2.551-3.4,2.6l3.119.484a5.444,5.444,0,0,1-2.581,2.638,15.8,15.8,0,0,0,13.823-15.051,4.367,4.367,0,0,1,2.9-5.064c2.892-1.709,5.307-4.543,5.693-7.88a28.4,28.4,0,0,0-.112-4.4c-.061-1.544,2.533-2.587,2.882-4.065C578.858,355.437,574.429,353.615,572.365,353.323Z" transform="translate(-427.466 -268.326)" fill="#2f2e41"/>
  </g>
</svg>
