<svg xmlns="http://www.w3.org/2000/svg" width="18" height="18" viewBox="0 0 18 18">
  <path id="Icon_metro-instagram" data-name="Icon metro-instagram" d="M17.582,1.928H5.559A3,3,0,0,0,2.571,4.916V16.94a3,3,0,0,0,2.988,2.988H17.582a3,3,0,0,0,2.988-2.988V4.916A3,3,0,0,0,17.582,1.928ZM8.333,9.8h6.476a3.428,3.428,0,1,1-6.476,0Zm9.988,0v6.749A1.128,1.128,0,0,1,17.2,17.678H5.946a1.128,1.128,0,0,1-1.125-1.125V9.8H6.58a5.115,5.115,0,1,0,9.981,0Zm0-3.938a.564.564,0,0,1-.562.563H16.633a.564.564,0,0,1-.562-.562V4.741a.564.564,0,0,1,.563-.562h1.125a.564.564,0,0,1,.563.563Z" transform="translate(-2.571 -1.928)" fill="#fafaf4"/>
</svg>
