<svg xmlns="http://www.w3.org/2000/svg" width="299.503" height="322.265" viewBox="0 0 299.503 322.265">
  <g id="Grupo_671" data-name="Grupo 671" transform="translate(-0.004)">
    <path id="Caminho_195" data-name="Caminho 195" d="M500.986,321.88,371.521,355.219a17.119,17.119,0,0,1-20.824-12.3L311.544,190.877a17.119,17.119,0,0,1,12.3-20.824l120.446-31.016,30.828,13.8,38.168,148.218A17.119,17.119,0,0,1,500.986,321.88Z" transform="translate(-310.999 -139.037)" fill="#ddd"/>
    <path id="Caminho_196" data-name="Caminho 196" d="M329.644,179.653a12.191,12.191,0,0,0-8.756,14.829l39.154,152.046a12.191,12.191,0,0,0,14.829,8.756l129.465-33.339a12.191,12.191,0,0,0,8.756-14.829L475.515,161.194l-27.093-12.129Z" transform="translate(-315.577 -143.869)" fill="#206a5d"/>
    <path id="Caminho_197" data-name="Caminho 197" d="M598.443,154l-20.036,5.16a5.7,5.7,0,0,1-6.935-4.095l-3.811-14.8a.356.356,0,0,1,.489-.414L598.5,153.331a.356.356,0,0,1-.056.67Z" transform="translate(-434.658 -139.415)" fill="#f2f2f2"/>
    <path id="Caminho_198" data-name="Caminho 198" d="M548.617,412.553l-58.944,15.179a2.848,2.848,0,0,1-1.42-5.515L547.2,407.037a2.848,2.848,0,1,1,1.42,5.515Z" transform="translate(-395.373 -268.123)" fill="#ccc"/>
    <path id="Caminho_199" data-name="Caminho 199" d="M564.617,424.861,494.3,442.969a2.848,2.848,0,0,1-1.42-5.515L563.2,419.345a2.848,2.848,0,1,1,1.42,5.515Z" transform="translate(-397.601 -274.053)" fill="#ccc"/>
    <circle id="Ellipse_44" data-name="Ellipse 44" cx="10.065" cy="10.065" r="10.065" transform="translate(60.178 157.76)" fill="#789639"/>
    <path id="Caminho_200" data-name="Caminho 200" d="M496.36,291.55,418.077,311.7a8.819,8.819,0,0,1-10.727-6.335l-16.405-63.73a8.819,8.819,0,0,1,6.335-10.727l78.283-20.151a8.819,8.819,0,0,1,10.727,6.335l16.405,63.73A8.819,8.819,0,0,1,496.36,291.55Z" transform="translate(-349.383 -173.46)" fill="#789639"/>
    <path id="Caminho_201" data-name="Caminho 201" d="M496.36,291.55,418.077,311.7a8.819,8.819,0,0,1-10.727-6.335l-16.405-63.73a8.819,8.819,0,0,1,6.335-10.727l78.283-20.151a8.819,8.819,0,0,1,10.727,6.335l16.405,63.73A8.819,8.819,0,0,1,496.36,291.55Zm-98.822-59.637a7.781,7.781,0,0,0-5.59,9.465l16.405,63.73a7.781,7.781,0,0,0,9.465,5.59L496.1,290.546a7.781,7.781,0,0,0,5.59-9.465l-16.405-63.73a7.781,7.781,0,0,0-9.465-5.59Z" transform="translate(-349.383 -173.46)" fill="#ddd"/>
    <path id="Path_411" data-name="Path 411" d="M508.449,249.764l-39.508,10.17a1.415,1.415,0,0,1-1.714-.891,1.363,1.363,0,0,1,.96-1.73L508.4,246.961c1.625.823,1.2,2.507.045,2.8Z" transform="translate(-386.241 -191.038)" fill="#ddd"/>
    <path id="Path_412" data-name="Path 412" d="M511.892,263.138l-39.508,10.17a1.415,1.415,0,0,1-1.714-.891,1.363,1.363,0,0,1,.96-1.73l40.217-10.353c1.625.823,1.2,2.507.045,2.8Z" transform="translate(-387.9 -197.482)" fill="#ddd"/>
    <path id="Path_413" data-name="Path 413" d="M443.115,281.192l-12.058,3.1a1.535,1.535,0,0,1-1.867-1.1l-3.663-14.229a1.535,1.535,0,0,1,1.1-1.867l12.058-3.1a1.535,1.535,0,0,1,1.867,1.1l3.663,14.229a1.535,1.535,0,0,1-1.1,1.867Z" transform="translate(-366.157 -199.221)" fill="#ddd"/>
    <path id="Path_414" data-name="Path 414" d="M499.389,290.578l-60.3,15.521a1.415,1.415,0,0,1-1.714-.89,1.363,1.363,0,0,1,.96-1.73l61.006-15.7C500.968,288.6,500.541,290.282,499.389,290.578Z" transform="translate(-371.859 -210.703)" fill="#ddd"/>
    <path id="Path_415" data-name="Path 415" d="M502.832,303.956l-60.3,15.521a1.415,1.415,0,0,1-1.714-.891,1.363,1.363,0,0,1,.96-1.73l61.006-15.7c1.625.823,1.2,2.507.045,2.8Z" transform="translate(-373.518 -217.149)" fill="#ddd"/>
    <path id="Path_416" data-name="Path 416" d="M506.274,317.325l-60.3,15.521a1.415,1.415,0,0,1-1.714-.891,1.363,1.363,0,0,1,.96-1.73l61.006-15.7C507.853,315.345,507.426,317.029,506.274,317.325Z" transform="translate(-375.177 -223.59)" fill="#ddd"/>
    <path id="Path_417" data-name="Path 417" d="M509.717,330.7l-60.3,15.521a1.415,1.415,0,0,1-1.714-.89,1.363,1.363,0,0,1,.96-1.73l61.006-15.7C511.3,328.722,510.869,330.406,509.717,330.7Z" transform="translate(-376.836 -230.036)" fill="#ddd"/>
    <path id="Path_418" data-name="Path 418" d="M513.159,344.073l-60.3,15.521a1.415,1.415,0,0,1-1.714-.891,1.363,1.363,0,0,1,.96-1.73l61.006-15.7C514.738,342.092,514.311,343.776,513.159,344.073Z" transform="translate(-378.494 -236.478)" fill="#ddd"/>
    <path id="Path_395" data-name="Path 395" d="M444.217,461.811a1.044,1.044,0,0,1-.66-.046l-.013-.005L440.8,460.6a1.051,1.051,0,1,1,.823-1.935l1.777.756,2.328-5.477a1.051,1.051,0,0,1,1.378-.556h0l-.014.036.015-.036a1.052,1.052,0,0,1,.556,1.378l-2.739,6.439a1.051,1.051,0,0,1-.707.605Z" transform="translate(-373.231 -290.459)" fill="#206a5d"/>
    <path id="Caminho_202" data-name="Caminho 202" d="M633.263,425.921H499.574a17.119,17.119,0,0,1-17.1-17.1V251.814a17.119,17.119,0,0,1,17.1-17.1H623.95l26.413,21.053V408.821A17.119,17.119,0,0,1,633.263,425.921Z" transform="translate(-393.619 -185.137)" fill="#ddd"/>
    <path id="Caminho_203" data-name="Caminho 203" d="M504.152,244.215a12.191,12.191,0,0,0-12.177,12.177V413.4a12.191,12.191,0,0,0,12.177,12.177H637.84A12.191,12.191,0,0,0,650.017,413.4V262.716l-23.212-18.5Z" transform="translate(-398.196 -189.715)" fill="#206a5d"/>
    <path id="Caminho_204" data-name="Caminho 204" d="M664.049,327.023H603.182a2.848,2.848,0,1,1,0-5.7h60.867a2.848,2.848,0,0,1,0,5.7Z" transform="translate(-450.407 -226.87)" fill="#789639"/>
    <path id="Caminho_205" data-name="Caminho 205" d="M675.795,345.57H603.182a2.848,2.848,0,0,1,0-5.7h72.613a2.848,2.848,0,1,1,0,5.7Z" transform="translate(-450.407 -235.806)" fill="#789639"/>
    <path id="Caminho_206" data-name="Caminho 206" d="M664.051,404.443H603.187a2.847,2.847,0,1,0,0,5.695h60.865a2.847,2.847,0,0,0,0-5.695Z" transform="translate(-450.409 -266.917)" fill="#fff"/>
    <path id="Caminho_207" data-name="Caminho 207" d="M675.8,422.993H603.187a2.847,2.847,0,1,0,0,5.695H675.8a2.847,2.847,0,1,0,0-5.695Z" transform="translate(-450.409 -275.855)" fill="#fff"/>
    <path id="Caminho_208" data-name="Caminho 208" d="M664.049,493.259H603.182a2.848,2.848,0,1,1,0-5.7h60.867a2.848,2.848,0,0,1,0,5.7Z" transform="translate(-450.407 -306.966)" fill="#fff"/>
    <path id="Caminho_209" data-name="Caminho 209" d="M675.795,511.806H603.182a2.848,2.848,0,0,1,0-5.7h72.613a2.848,2.848,0,1,1,0,5.7Z" transform="translate(-450.407 -315.903)" fill="#fff"/>
    <path id="Ellipse_44-2" data-name="Ellipse 44" d="M10.065,0A10.065,10.065,0,1,1,0,10.065,10.065,10.065,0,0,1,10.065,0Z" transform="translate(117.364 92.047)" fill="#789639"/>
    <path id="Path_395-2" data-name="Path 395" d="M551.814,336.389a1.044,1.044,0,0,1-.628-.209l-.011-.008-2.365-1.809a1.051,1.051,0,0,1,1.279-1.668l1.532,1.175,3.62-4.723a1.051,1.051,0,0,1,1.473-.195h0l-.022.031.023-.031a1.052,1.052,0,0,1,.194,1.473l-4.258,5.553a1.051,1.051,0,0,1-.836.41Z" transform="translate(-425.382 -230.438)" fill="#206a5d"/>
    <path id="Caminho_210" data-name="Caminho 210" d="M559.618,409.852a10.064,10.064,0,0,1-10.063,10.068,2.16,2.16,0,0,1-.259-.01,10.064,10.064,0,1,1,10.322-10.058Z" transform="translate(-421.09 -264.672)" fill="#fff"/>
    <circle id="Ellipse_44-3" data-name="Ellipse 44" cx="10.065" cy="10.065" r="10.065" transform="translate(117.364 178.185)" fill="#fff"/>
    <path id="Caminho_211" data-name="Caminho 211" d="M780.948,256.815h-20.69a5.7,5.7,0,0,1-5.7-5.7V235.838a.356.356,0,0,1,.577-.279l26.029,20.621a.356.356,0,0,1-.221.635Z" transform="translate(-524.718 -185.507)" fill="#f2f2f2"/>
    <path id="Caminho_212" data-name="Caminho 212" d="M567.281,409.986a10.064,10.064,0,0,1-10.063,10.068,2.16,2.16,0,0,1-.259-.01,21.79,21.79,0,0,1,1.954-19.981,10.07,10.07,0,0,1,8.368,9.923Z" transform="translate(-428.753 -264.806)" fill="#789639"/>
    <path id="Caminho_213" data-name="Caminho 213" d="M600.334,407.293a2.855,2.855,0,0,1,2.85-2.85h15.167a21.54,21.54,0,0,1,1.87,5.695H603.184a2.851,2.851,0,0,1-2.85-2.844Z" transform="translate(-450.407 -266.917)" fill="#789639"/>
    <path id="Caminho_214" data-name="Caminho 214" d="M620.577,422.993a21.726,21.726,0,0,1-.757,5.695H603.187a2.847,2.847,0,1,1,0-5.695Z" transform="translate(-450.409 -275.855)" fill="#789639"/>
    <path id="Caminho_215" data-name="Caminho 215" d="M672.726,465.8a3.109,3.109,0,0,1-4.273,1.035l-36.275-22.126a3.109,3.109,0,1,1,3.238-5.308l36.275,22.126a3.109,3.109,0,0,1,1.035,4.273Z" transform="translate(-465.032 -283.541)" fill="#3f3d56"/>
    <path id="Caminho_216" data-name="Caminho 216" d="M598.936,412.9a24.872,24.872,0,1,1-8.282-34.186A24.872,24.872,0,0,1,598.936,412.9ZM561.776,390.23a18.654,18.654,0,1,0,25.639-6.212,18.654,18.654,0,0,0-25.639,6.212Z" transform="translate(-427.516 -252.763)" fill="#3f3d56"/>
    <circle id="Elipse_33" data-name="Elipse 33" cx="12.727" cy="12.727" r="12.727" transform="translate(238.383 125.715)" fill="#a0616a"/>
    <path id="Caminho_217" data-name="Caminho 217" d="M793.761,498.354a5.7,5.7,0,0,1,4.313-7.333,5.43,5.43,0,0,1,.756-.093l13.406-21.516L799.99,457.77a4.887,4.887,0,1,1,6.8-7.023L823.7,467.419l.034.042a4.428,4.428,0,0,1-.308,5.277l-18.784,22.216a5.352,5.352,0,0,1,.14.542,5.7,5.7,0,0,1-5.117,6.8q-.243.021-.483.021A5.719,5.719,0,0,1,793.761,498.354Z" transform="translate(-543.474 -288.564)" fill="#a0616a"/>
    <path id="Caminho_218" data-name="Caminho 218" d="M435.434,586.216h-6.353l-3.022-24.5h9.376Z" transform="translate(-205.285 -270.648)" fill="#a0616a"/>
    <path id="Caminho_219" data-name="Caminho 219" d="M739.23,752.267H718.746v-.259a7.973,7.973,0,0,1,7.973-7.973H739.23Z" transform="translate(-507.461 -430.541)" fill="#2f2e41"/>
    <path id="Caminho_220" data-name="Caminho 220" d="M546.86,572.473l-5.458,3.25-15.133-19.507,8.056-4.8Z" transform="translate(-253.568 -265.688)" fill="#a0616a"/>
    <path id="Caminho_221" data-name="Caminho 221" d="M868.239,733.122l-17.6,10.479-.133-.223a7.973,7.973,0,0,1,2.771-10.929h0l10.75-6.4Z" transform="translate(-570.405 -421.875)" fill="#2f2e41"/>
    <path id="Caminho_222" data-name="Caminho 222" d="M732.5,619.535c-4.256-50.111-6.787-96.663,8.77-115.653l.12-.147,26.181,10.473.043.094c.088.192,8.8,19.345,6.764,32.227l6.458,29.706,21.056,35.257a2.333,2.333,0,0,1-1.063,3.331l-9.151,4.026a2.343,2.343,0,0,1-2.927-.915l-22.905-37.35-12.938-28.648a.777.777,0,0,0-1.481.238l-7.172,67.413a2.328,2.328,0,0,1-2.319,2.085h-7.114a2.347,2.347,0,0,1-2.324-2.136Z" transform="translate(-512.528 -314.758)" fill="#2f2e41"/>
    <path id="Caminho_223" data-name="Caminho 223" d="M752.159,473.127l-.125-.06-.019-.137c-.978-6.845.18-14.451,3.441-22.605a17.948,17.948,0,0,1,20.832-10.749h0a17.926,17.926,0,0,1,11.431,8.79,17.732,17.732,0,0,1,1.229,14.211c-4.111,12.022-9.444,23.27-9.5,23.382l-.112.235Z" transform="translate(-523.329 -283.605)" fill="#87a83e"/>
    <path id="Caminho_224" data-name="Caminho 224" d="M695.467,461.364a5.7,5.7,0,0,1,8.379,1.472,5.422,5.422,0,0,1,.352.676l24.849,5.022,6.616-15.547a4.887,4.887,0,1,1,8.959,3.909l-9.7,21.675-.027.046a4.428,4.428,0,0,1-5.051,1.56l-27.387-9.815a5.353,5.353,0,0,1-.459.321,5.7,5.7,0,0,1-8.158-2.413q-.1-.22-.189-.445a5.719,5.719,0,0,1,1.811-6.461Z" transform="translate(-495.201 -288.892)" fill="#a0616a"/>
    <path id="Caminho_225" data-name="Caminho 225" d="M827.231,403.177a10.376,10.376,0,0,0-5.373-4.964c-3.049-1.037-6.351.067-9.486.8a17.577,17.577,0,0,1-7.374.436,8.281,8.281,0,0,1-5.891-4.116c-1.63-3.266-.257-7.161-.356-10.81a13.128,13.128,0,0,0-16.542-12.338c-3-.866-5.72-.946-7.577,1.361a8.809,8.809,0,0,0-8.809,8.809h8.423a8.368,8.368,0,0,0,1.272,6.182c1.487,2.185,4.073,3.765,4.57,6.36.482,2.515-1.227,4.9-3.021,6.729s-3.873,3.64-4.433,6.138a7.611,7.611,0,0,0,1.09,5.474,17.827,17.827,0,0,0,3.827,4.216A56.171,56.171,0,0,0,800.889,429.4c6.065,1.46,12.7,1.839,18.328-.847a18.2,18.2,0,0,0,8.013-25.373Z" transform="translate(-530.144 -251.106)" fill="#2f2e41"/>
    <path id="Caminho_226" data-name="Caminho 226" d="M795.972,760H697.519a.518.518,0,0,1,0-1.036h98.453a.518.518,0,0,1,0,1.036Z" transform="translate(-496.983 -437.734)" fill="#ccc"/>
  </g>
</svg>
