<svg id="Grupo_678" data-name="Grupo 678" xmlns="http://www.w3.org/2000/svg" width="425.354" height="381.83" viewBox="0 0 425.354 381.83">
  <path id="Caminho_299" data-name="Caminho 299" d="M738.145,340.182a.744.744,0,0,1-.426-.134L531.341,196.321a3.743,3.743,0,0,0-4.275.007L322.175,340.047a.746.746,0,1,1-.857-1.222L526.209,195.106a5.24,5.24,0,0,1,5.985-.01L738.572,338.823a.746.746,0,0,1-.427,1.359Z" transform="translate(-316.523 -194.163)" fill="#3f3d56"/>
  <path id="Caminho_300" data-name="Caminho 300" d="M23.264,153.225,218.787,8.319,415.793,163.536,228.861,274.352,127.373,251.219Z" transform="translate(-5.904 -2.111)" fill="#e6e6e6"/>
  <path id="Caminho_301" data-name="Caminho 301" d="M454.874,647.634H358.281a4.513,4.513,0,0,1,0-9.026h96.593a4.513,4.513,0,0,1,0,9.026Z" transform="translate(-324.838 -306.947)" fill="#206a5d"/>
  <path id="Caminho_302" data-name="Caminho 302" d="M392.936,621.634H358.281a4.513,4.513,0,0,1,0-9.026h34.655a4.513,4.513,0,0,1,0,9.026Z" transform="translate(-324.838 -300.349)" fill="#206a5d"/>
  <path id="Caminho_303" data-name="Caminho 303" d="M562.226,432.63a5.644,5.644,0,0,1-2.141-.419L439.5,382.176V225.561a5.23,5.23,0,0,1,5.224-5.224H676.057a5.23,5.23,0,0,1,5.224,5.224V382.286l-.227.1-116.622,49.8a5.684,5.684,0,0,1-2.206.444Z" transform="translate(-346.594 -200.805)" fill="#fff"/>
  <path id="Caminho_304" data-name="Caminho 304" d="M562.1,432.876a6.023,6.023,0,0,1-2.283-.447L439,382.3V225.434a5.6,5.6,0,0,1,5.6-5.6H675.93a5.6,5.6,0,0,1,5.6,5.6V382.405l-117.075,50A6.052,6.052,0,0,1,562.1,432.876ZM440.493,381.3l119.893,49.747a4.565,4.565,0,0,0,3.483-.021L680.034,381.42V225.434a4.109,4.109,0,0,0-4.1-4.1H444.6a4.109,4.109,0,0,0-4.1,4.1Z" transform="translate(-346.467 -200.678)" fill="#3f3d56"/>
  <path id="Caminho_305" data-name="Caminho 305" d="M735.131,387.837h-.149l-85.668,36.58L532.1,474.468a3.781,3.781,0,0,1-2.9.015L408.279,424.313,320.507,387.9l-.134-.06h-.149A5.229,5.229,0,0,0,315,393.061V619.917a5.229,5.229,0,0,0,5.224,5.224H735.131a5.229,5.229,0,0,0,5.224-5.224V393.061A5.229,5.229,0,0,0,735.131,387.837Zm3.731,232.079a3.733,3.733,0,0,1-3.731,3.731H320.224a3.733,3.733,0,0,1-3.731-3.731V393.061a3.739,3.739,0,0,1,3.589-3.731l88.2,36.6,120.353,49.938a5.314,5.314,0,0,0,4.06-.022l116.622-49.8L735.28,389.33a3.743,3.743,0,0,1,3.582,3.731Z" transform="translate(-315 -243.31)" fill="#3f3d56"/>
  <path id="Caminho_306" data-name="Caminho 306" d="M579.506,394.137a20.521,20.521,0,0,1-12.347-4.1l-.221-.166-46.5-35.6a20.658,20.658,0,1,1,25.129-32.8l30.118,23.094,71.174-92.822a20.657,20.657,0,0,1,28.964-3.823l-.443.6.454-.592a20.682,20.682,0,0,1,3.823,28.964L595.941,386.075A20.667,20.667,0,0,1,579.506,394.137Z" transform="translate(-365.079 -206.722)" fill="#206a5d"/>
</svg>
