<svg id="Grupo_673" data-name="Grupo 673" xmlns="http://www.w3.org/2000/svg" width="465.327" height="327.927" viewBox="0 0 465.327 327.927">
  <path id="Caminho_298" data-name="Caminho 298" d="M25.341,0A25.341,25.341,0,1,1,0,25.341,25.341,25.341,0,0,1,25.341,0Z" transform="translate(212.311 276.549)" fill="#206a5d"/>
  <path id="Caminho_267" data-name="Caminho 267" d="M622.238,499.238c14.177-4.258,29.249-8.7,40.492-18.819,10.047-9.045,16.83-22.856,12.668-36.421-4.154-13.537-16.6-22.563-29.441-27.052a120.785,120.785,0,0,0-22.527-5.068c-8.283-1.206-16.6-2.195-24.917-3.146q-50.5-5.776-101.389-7.058c-16.739-.422-33.474-.411-50.215-.168-14.951.217-30.7.212-44.567-6.143-10.786-4.941-20.575-13.931-23.58-25.745-3.469-13.637,2.93-27.525,12.109-37.4A98.04,98.04,0,0,1,407.2,318.6c6.328-4.371,12.877-8.432,19.568-12.223a272.491,272.491,0,0,1,41.189-18.989c7.021-2.553,14.147-4.756,21.335-6.788a182.566,182.566,0,0,0,18.023-5.772c11.339-4.519,22.124-12.175,25.008-24.725,2.733-11.895-1.875-24.807-9.952-33.643-9.345-10.223-23.435-14.7-36.943-15.429-15.165-.814-29.981,2.981-44.235,7.8-15.2,5.138-30.078,11.045-45.6,15.206a306.831,306.831,0,0,1-46.934,8.724c-7.758.826-15.75,1.759-23.554,1.126-6.54-.53-13.048-2.454-17.868-7.1-4.133-3.98-6.6-9.45-5.749-15.223.154-1.048,1.746-.6,1.594.439-1.03,7.027,3.746,13.5,9.632,16.818,6.8,3.833,15.08,3.839,22.654,3.4a296.29,296.29,0,0,0,48.762-7.049c15.751-3.6,30.94-8.741,46.112-14.235,14.409-5.218,29.141-10.31,44.534-11.441,13.357-.981,27.408.965,39.044,7.946a43.193,43.193,0,0,1,20.143,28.106c2.341,11.472-.9,23.019-9.586,31.025-8.991,8.289-21.32,11.833-32.809,15.1a300.584,300.584,0,0,0-42.635,15.262,267.642,267.642,0,0,0-40.105,22.547c-12.255,8.375-24.35,18.912-28.226,33.853a31.187,31.187,0,0,0,1.549,20.915,38.219,38.219,0,0,0,12.264,14.554c12.3,9.048,27.794,10.906,42.647,11.091,16.682.208,33.364-.355,50.052-.082q51.012.837,101.816,6.21,12.73,1.347,25.428,2.979a229.923,229.923,0,0,1,22.74,3.688c13.311,3.09,26.263,9.03,34.537,20.316a32.126,32.126,0,0,1,2.736,35.129c-6.353,12.5-18.253,20.451-30.891,25.674a219.184,219.184,0,0,1-20.8,7.022.827.827,0,0,1-.439-1.594Z" transform="translate(-233.196 -173.43)" fill="#ddd"/>
  <circle id="Elipse_39" data-name="Elipse 39" cx="13.221" cy="13.221" r="13.221" transform="translate(56.132 25.066)" fill="#ddd"/>
  <circle id="Elipse_40" data-name="Elipse 40" cx="13.221" cy="13.221" r="13.221" transform="translate(147.856 50.131)" fill="#ddd"/>
  <circle id="Elipse_41" data-name="Elipse 41" cx="13.221" cy="13.221" r="13.221" transform="translate(225.532)" fill="#ddd"/>
  <circle id="Elipse_42" data-name="Elipse 42" cx="13.221" cy="13.221" r="13.221" transform="translate(274.011 56.191)" fill="#f2f2f2"/>
  <circle id="Elipse_43" data-name="Elipse 43" cx="13.221" cy="13.221" r="13.221" transform="translate(208.455 121.197)" fill="#ddd"/>
  <circle id="Elipse_44" data-name="Elipse 44" cx="13.221" cy="13.221" r="13.221" transform="translate(125.27 152.598)" fill="#ddd"/>
  <circle id="Elipse_45" data-name="Elipse 45" cx="13.221" cy="13.221" r="13.221" transform="translate(213.413 201.628)" fill="#f2f2f2"/>
  <circle id="Elipse_46" data-name="Elipse 46" cx="13.221" cy="13.221" r="13.221" transform="translate(308.167 229.172)" fill="#f2f2f2"/>
  <circle id="Elipse_47" data-name="Elipse 47" cx="13.221" cy="13.221" r="13.221" transform="translate(418.897 223.112)" fill="#ddd"/>
  <path id="Caminho_268" data-name="Caminho 268" d="M544.94,220.371a73.334,73.334,0,0,0-72.6,72.066c-.005.366-.008,2.937-.007,6.3a18.591,18.591,0,0,0,18.588,18.59h0a18.6,18.6,0,0,0,18.6-18.615c0-2.291,0-3.875,0-3.972A35.258,35.258,0,1,1,563.8,324.422l.006.008s-26.459,17.033-34.525,40.4l.007,0a51.788,51.788,0,0,0-2.134,14.746c0,2.052.121,20.009.354,34.584a19.164,19.164,0,0,0,19.166,18.853h0a19.169,19.169,0,0,0,19.168-19.287c-.081-13.348-.125-28.89-.125-30.018,0-14.348,13.841-28.644,25.211-37.966a76.466,76.466,0,0,0,26.3-41.867A47.8,47.8,0,0,0,618.6,293.5a73.131,73.131,0,0,0-73.66-73.129Z" transform="translate(-310.002 -182.908)" fill="#206a5d"/>
  <path id="Caminho_269" data-name="Caminho 269" d="M642.334,746.561H178.318a.656.656,0,1,1,0-1.312H642.334a.656.656,0,1,1,0,1.312Z" transform="translate(-177.662 -418.635)" fill="#ddd"/>
  <circle id="Elipse_48" data-name="Elipse 48" cx="16.527" cy="16.527" r="16.527" transform="translate(329.682 117.338)" fill="#2f2e41"/>
  <path id="Caminho_270" data-name="Caminho 270" d="M564.887,560.892h-6.753l-3.213-26.051h9.968Z" transform="translate(-249.217 -240.2)" fill="#a0616a"/>
  <path id="Caminho_271" data-name="Caminho 271" d="M545.31,578.626h13.025v8.2H537.109A8.2,8.2,0,0,1,545.31,578.626Z" transform="translate(-241.218 -259.864)" fill="#2f2e41"/>
  <path id="Caminho_272" data-name="Caminho 272" d="M659.887,560.892h-6.753l-3.213-26.051h9.968Z" transform="translate(-291.882 -240.2)" fill="#a0616a"/>
  <path id="Caminho_273" data-name="Caminho 273" d="M640.31,578.626h13.025v8.2H632.109A8.2,8.2,0,0,1,640.31,578.626Z" transform="translate(-283.883 -259.864)" fill="#2f2e41"/>
  <circle id="Elipse_49" data-name="Elipse 49" cx="13.531" cy="13.531" r="13.531" transform="translate(330.167 123.427)" fill="#a0616a"/>
  <path id="Caminho_274" data-name="Caminho 274" d="M776.753,473.3l6.054-13.91a17.288,17.288,0,0,0-3.829-19.612,17.558,17.558,0,0,0-1.691-1.471,17.042,17.042,0,0,0-10.461-3.619,17.727,17.727,0,0,0-7.382,1.642c-.2.088-.391.182-.59.275-.38.182-.755.38-1.118.584a17.451,17.451,0,0,0-8.649,13.155l-2.672,22.388c-.672,1.757-24.647,65.22-16.262,113.672a2.461,2.461,0,0,0,2.1,2.022l8.5,1.157a2.477,2.477,0,0,0,2.76-1.945L757.78,519.65a1.93,1.93,0,0,1,3.746-.127l20.152,71.5a2.463,2.463,0,0,0,2.374,1.807,2.83,2.83,0,0,0,.479-.044l10.384-2a2.463,2.463,0,0,0,2-2.65C795.39,571.114,787.281,485.874,776.753,473.3Z" transform="translate(-424.991 -279.159)" fill="#2f2e41"/>
  <path id="Caminho_275" data-name="Caminho 275" d="M706.071,417.376a5.54,5.54,0,0,0,5.836,6.172l7.563,18.175,5.721-8.481-8.059-15.959a5.57,5.57,0,0,0-11.061.093Z" transform="translate(-414.957 -269.158)" fill="#a0616a"/>
  <path id="Caminho_276" data-name="Caminho 276" d="M795.081,519.823a5.54,5.54,0,0,0,4.642-7.114l15.913-11.59-9.58-3.588-13.642,11.556a5.57,5.57,0,0,0,2.668,10.735Z" transform="translate(-452.133 -307.383)" fill="#a0616a"/>
  <path id="Caminho_277" data-name="Caminho 277" d="M737.158,465.505a9.4,9.4,0,0,1-1.817-.179,8.983,8.983,0,0,1-6.582-5.3l-10.6-12.92a2.479,2.479,0,0,1,.612-3.68l7.539-4.667a2.479,2.479,0,0,1,3.424.821l7.468,12.3,14.3-10.57a5.355,5.355,0,0,1,6.23,8.573l-14.275,13.021A8.954,8.954,0,0,1,737.158,465.505Z" transform="translate(-420.152 -280.823)" fill="#2f2e41"/>
  <path id="Caminho_278" data-name="Caminho 278" d="M815.767,488.23h-.058a2.483,2.483,0,0,1-1.824-.865l-6.7-7.819a2.479,2.479,0,0,1,.507-3.676l12.55-8.367-11.37-13.669a5.355,5.355,0,0,1,8.2-6.711l13.818,13.5a9.1,9.1,0,0,1-2.025,14.841l-11.294,11.984a2.483,2.483,0,0,1-1.8.778Z" transform="translate(-460.115 -284.116)" fill="#2f2e41"/>
  <path id="Caminho_279" data-name="Caminho 279" d="M789.205,453.339a2.543,2.543,0,0,1-.322-.02,2.458,2.458,0,0,1-2.044-1.691L781.8,436.186a1.7,1.7,0,0,1,.878-2.052l.163-.077c.148-.07.295-.14.445-.207a17.944,17.944,0,0,1,7.494-1.665,17.258,17.258,0,0,1,9.454,2.841,1.724,1.724,0,0,1,.5,2.366l-9.448,14.8A2.454,2.454,0,0,1,789.205,453.339Z" transform="translate(-448.948 -278.036)" fill="#87a83e"/>
  <circle id="Elipse_50" data-name="Elipse 50" cx="5.408" cy="5.408" r="5.408" transform="translate(353.831 115.671)" fill="#2f2e41"/>
  <path id="Caminho_280" data-name="Caminho 280" d="M784.434,361.365h0a14.323,14.323,0,0,0-14.323,14.323v6.06h7.453l3.565-6.06,1.07,6.06h22.619l-6.06-6.06A14.323,14.323,0,0,0,784.434,361.365Z" transform="translate(-443.734 -246.23)" fill="#2f2e41"/>
  <path id="Caminho_281" data-name="Caminho 281" d="M834.809,360.7a8.346,8.346,0,0,1,9.079-5.727c3.446.576,6.171,3.346,7.795,6.441s2.373,6.557,3.465,9.876,2.639,6.657,5.395,8.806,6.984,2.732,9.69.521a11.083,11.083,0,0,1-20.646,3.956c-1.428-2.541-1.8-5.518-2.22-8.4s-.974-5.867-2.679-8.231-4.9-3.907-7.6-2.831Z" transform="translate(-472.79 -243.325)" fill="#2f2e41"/>
  <path id="Caminho_282" data-name="Caminho 282" d="M495.963,333.212h0a18.591,18.591,0,0,1-18.589-18.588c0-3.365,0-5.936.007-6.3a72.446,72.446,0,0,1,8.461-33,72.61,72.61,0,0,0-13.97,41.818c-.005.366-.008,2.937-.007,6.3a18.591,18.591,0,0,0,18.588,18.59h0a18.605,18.605,0,0,0,17.9-13.547A18.522,18.522,0,0,1,495.963,333.212Z" transform="translate(-309.79 -207.586)" fill="#3f3d56"/>
  <path id="Caminho_283" data-name="Caminho 283" d="M583.166,284.26a35.259,35.259,0,0,1,30.662,49.257,35.256,35.256,0,1,0-59.18-36.9,35.186,35.186,0,0,1,28.518-12.355Z" transform="translate(-346.969 -207.625)" fill="#3f3d56"/>
  <path id="Caminho_284" data-name="Caminho 284" d="M596.393,529.117h0a19.165,19.165,0,0,1-19.166-18.857c-.233-14.57-.354-32.527-.354-34.58a51.785,51.785,0,0,1,2.134-14.746l-.007,0a52.363,52.363,0,0,1,3.027-7,60.625,60.625,0,0,0-8.536,15.811l.007,0a51.789,51.789,0,0,0-2.134,14.746c0,2.052.121,20.009.354,34.584a19.164,19.164,0,0,0,19.166,18.853h0a19.171,19.171,0,0,0,18.4-13.8,19.094,19.094,0,0,1-12.891,4.982Z" transform="translate(-354.476 -287.804)" fill="#3f3d56"/>
  <path id="Caminho_285" data-name="Caminho 285" d="M126.54,561.347h6.753l3.213-26.051h-9.968Z" transform="translate(-56.829 -240.404)" fill="#ffb8b8"/>
  <path id="Caminho_286" data-name="Caminho 286" d="M0,0H21.226V8.2H8.2A8.2,8.2,0,0,1,0,0H0Z" transform="translate(89.488 327.214) rotate(179.997)" fill="#2f2e41"/>
  <path id="Caminho_287" data-name="Caminho 287" d="M82.54,561.347h6.753L92.506,535.3H82.538Z" transform="translate(-37.068 -240.404)" fill="#ffb8b8"/>
  <path id="Caminho_288" data-name="Caminho 288" d="M0,0H21.226V8.2H8.2A8.2,8.2,0,0,1,0,0H0Z" transform="translate(65.249 327.214) rotate(179.997)" fill="#2f2e41"/>
  <path id="Caminho_289" data-name="Caminho 289" d="M263.55,646.729l-6.6-.347a2.575,2.575,0,0,1-2.434-2.736l7.885-87.3,36.31,9.8,3.5-.954-10.94,77.282a2.587,2.587,0,0,1-2.4,2.173l-7.111.331a2.575,2.575,0,0,1-2.717-2.642l1.289-46.383a.858.858,0,0,0-1.7-.2l-12.426,48.926a2.559,2.559,0,0,1-2.517,2.052C263.643,646.733,263.6,646.732,263.55,646.729Z" transform="translate(-212.177 -333.798)" fill="#2f2e41"/>
  <circle id="Elipse_51" data-name="Elipse 51" cx="13.531" cy="13.531" r="13.531" transform="translate(57.393 124.06)" fill="#ffb8b8"/>
  <path id="Caminho_290" data-name="Caminho 290" d="M265.493,456.811l1.488,32.1.538,11.678a2.558,2.558,0,0,0,1.694,2.3L304.1,515.528a2.465,2.465,0,0,0,.881.154,2.558,2.558,0,0,0,2.569-2.638l-1.43-57.716a20.345,20.345,0,0,0-16.937-19.654c-.338-.052-.681-.1-1.024-.149a19.97,19.97,0,0,0-16.067,5.2,20.513,20.513,0,0,0-6.6,16.084Z" transform="translate(-217.097 -279.468)" fill="#87a83e"/>
  <path id="Caminho_291" data-name="Caminho 291" d="M353.8,549.065a5.544,5.544,0,0,1-2.958-8.388l-11.832-15.734,10.21-.632,9.671,15.038a5.57,5.57,0,0,1-5.091,9.716Z" transform="translate(-250.123 -319.41)" fill="#ffb8b8"/>
  <path id="Caminho_292" data-name="Caminho 292" d="M334.642,505.331a2.559,2.559,0,0,1-1.4-1.387l-17.826-42.471a6.866,6.866,0,0,1,12.662-5.314L345.9,498.629A2.578,2.578,0,0,1,344.527,502l-7.914,3.321A2.557,2.557,0,0,1,334.642,505.331Z" transform="translate(-239.287 -286.911)" fill="#87a83e"/>
  <path id="Caminho_293" data-name="Caminho 293" d="M298.26,518.23l17.121-32.783A2.687,2.687,0,0,1,319,484.31l24.852,12.979a2.687,2.687,0,0,1,1.137,3.622L327.87,533.695a2.687,2.687,0,0,1-3.622,1.137L299.4,521.852A2.687,2.687,0,0,1,298.26,518.23Z" transform="translate(-231.686 -301.309)" fill="#3f3d56"/>
  <path id="Caminho_294" data-name="Caminho 294" d="M298.985,508.068a5.544,5.544,0,0,0-8.548-2.457l-16.4-10.882L274,504.958l15.583,8.766a5.57,5.57,0,0,0,9.4-5.656Z" transform="translate(-220.93 -306.124)" fill="#ffb8b8"/>
  <path id="Caminho_295" data-name="Caminho 295" d="M265.516,487.606l-13.407-10.62a9.455,9.455,0,0,1-4.31-14.949l12.173-15.954a5.562,5.562,0,0,1,9.437,5.666L259.777,467.5l14.155,6.714a2.575,2.575,0,0,1,1.073,3.7l-5.714,9.042a2.579,2.579,0,0,1-1.745,1.163l-.043.007A2.587,2.587,0,0,1,265.516,487.606Z" transform="translate(-208.202 -283.362)" fill="#87a83e"/>
  <path id="Caminho_296" data-name="Caminho 296" d="M282.422,395.651a1.176,1.176,0,0,1,1.023-1.553,2.716,2.716,0,0,1,1.915.945,7.621,7.621,0,0,0,1.692,1.453,1.456,1.456,0,0,0,1.915-.346,2.664,2.664,0,0,0-.1-2.068,20.332,20.332,0,0,1-.9-5.382,9.477,9.477,0,0,1,1.355-5.756c1.456-2.052,4.061-2.831,6.526-2.774a43.855,43.855,0,0,1,7.331,1.3,2.462,2.462,0,0,0,2.4-.4c.6-.695.379-1.819.124-2.757a19.146,19.146,0,0,0-2.9-6.915,10.411,10.411,0,0,0-6.644-3.741,15.942,15.942,0,0,0-7.416.842A19.885,19.885,0,0,0,279,375.281a16.106,16.106,0,0,0-3.073,11.9,14.691,14.691,0,0,0,5.446,9.285Z" transform="translate(-221.723 -249)" fill="#2f2e41"/>
  <path id="Caminho_297" data-name="Caminho 297" d="M582.777,703.043a25.338,25.338,0,0,1-9.4-39.383,25.34,25.34,0,1,0,34.469,36.615A25.324,25.324,0,0,1,582.777,703.043Z" transform="translate(-350.708 -381.993)" fill="#3f3d56"/>
</svg>
