<svg xmlns="http://www.w3.org/2000/svg" width="275.268" height="138.41" viewBox="0 0 275.268 138.41">
  <g id="Grupo_524" data-name="Grupo 524" transform="translate(3583 3425)">
    <path id="Caminho_141" data-name="Caminho 141" d="M78.5-323a47.2,47.2,0,0,1-18.489-3.733,47.341,47.341,0,0,1-15.1-10.18,47.341,47.341,0,0,1-10.18-15.1A47.2,47.2,0,0,1,31-370.5a47.2,47.2,0,0,1,3.733-18.489,47.341,47.341,0,0,1,10.18-15.1,47.343,47.343,0,0,1,15.1-10.179A47.2,47.2,0,0,1,78.5-418a47.2,47.2,0,0,1,18.489,3.733,47.342,47.342,0,0,1,15.1,10.179,47.34,47.34,0,0,1,10.18,15.1A47.2,47.2,0,0,1,126-370.5a47.2,47.2,0,0,1-3.733,18.489,47.34,47.34,0,0,1-10.18,15.1,47.34,47.34,0,0,1-15.1,10.18A47.2,47.2,0,0,1,78.5-323Zm-3.694-46.125h1.465c.1.67.293,1.8.586,3.37.288,1.535.584,3.235.879,5.054.3,1.877.567,3.554.805,5.126.243,1.6.415,2.763.513,3.443a11.685,11.685,0,0,1,0,2.637c0,1.166.049,2.4.146,3.662a8.831,8.831,0,0,0,.952,3.443,2.6,2.6,0,0,0,2.417,1.538h.292A.6.6,0,0,0,83.3-341c.291-.194.674-.434,1.172-.733a15.719,15.719,0,0,0,1.319-.878l.586-.44.023-.017.563-.423.439-.439v-25.2h22.559c.195,0,.54-.246,1.025-.733a15.065,15.065,0,0,0,1.392-1.611c.438-.584.857-1.2,1.245-1.831a3.225,3.225,0,0,0,.586-1.391,1.844,1.844,0,0,0-.879-1.611,5.521,5.521,0,0,0-2.124-.806c-.831-.147-1.644-.27-2.417-.366a15.545,15.545,0,0,0-1.611-.147c-1.54-.1-3.536-.293-5.933-.586-2.458-.3-4.8-.6-6.958-.879-2.222-.289-4.193-.585-5.86-.878l-2.344-.293-1.465-1.611L79.055-401.5l-2.784-2.93h-.439c-.114,0-.178-.017-.192-.05s.006-.056.046-.1h-.439a.129.129,0,0,1-.147.147h-.293l-.537.537-.927.927a12.14,12.14,0,0,0-1.319,1.465v.439a25.545,25.545,0,0,0,.439,4.688c.292,1.555.637,3.132,1.026,4.687s.731,3.1,1.025,4.614a24.381,24.381,0,0,1,.439,4.614v1.1c0,.437-.025.929-.073,1.464a3.678,3.678,0,0,1-.439,1.465,1.56,1.56,0,0,1-1.1.805c-.784.2-2.189.492-4.175.879L62.795-375.5l-2.584.505-3.788.74c-2.029.4-3.394.683-4.175.878-1.459.292-2.346.662-2.636,1.1a5.1,5.1,0,0,0-.44,2.563,5.3,5.3,0,0,0,.44,2.344c.291.778,1.178,1.172,2.636,1.172a35.742,35.742,0,0,0,5.567-.439c1.842-.29,3.715-.635,5.567-1.025s3.744-.734,5.639-1.026A38.235,38.235,0,0,1,74.806-369.125Z" transform="translate(-3614 -3007)" fill="#fff"/>
    <path id="Caminho_139" data-name="Caminho 139" d="M33.008,65.945q2.051,0,1.758,1.953a1.334,1.334,0,0,1-.049,2,6.026,6.026,0,0,1-3.076,1.367,25.5,25.5,0,0,1-5.371.391,38.05,38.05,0,0,1-7.031-.83,14.577,14.577,0,0,0,1.709,6.934,58.543,58.543,0,0,0,3.76,6.152q2.051,2.93,3.809,5.664a10.047,10.047,0,0,1,1.758,5.469,1.671,1.671,0,0,1-.781,1.66,3.2,3.2,0,0,1-1.758.391,3.9,3.9,0,0,1-2.1-.732,9.732,9.732,0,0,1-2.051-1.807,22.689,22.689,0,0,1-1.709-2.246q-.684-1.172-1.074-1.953l-1.123-2.246L17.969,84.7q-.977-1.953-1.953-4.053t-1.9-4.053q-.928-1.953-1.611-3.516a20.725,20.725,0,0,1-1.074-2.246l-1.074-1.074a11.078,11.078,0,0,1-1.807.439q-1.318.244-2.783.537t-2.832.586a10.764,10.764,0,0,1-1.953.293H.488a1.114,1.114,0,0,1-1.074-.537,2.722,2.722,0,0,1-.293-1.318A2.98,2.98,0,0,1,.293,67.215a7.532,7.532,0,0,1,2.832-1.27,23.364,23.364,0,0,1,3.467-.537q1.807-.146,2.979-.244-.2-2.93-.293-6.934a60.463,60.463,0,0,1,.391-8.3,56.883,56.883,0,0,1,1.611-8.447A27.148,27.148,0,0,1,14.5,34.012a17.113,17.113,0,0,1,5.322-5.371,14.444,14.444,0,0,1,7.91-2.051A14.936,14.936,0,0,1,33.5,27.908a24.52,24.52,0,0,1,5.811,3.467,20.722,20.722,0,0,1,4.443,4.834,9.815,9.815,0,0,1,1.758,5.42H43.262a4.846,4.846,0,0,1-3.467-1.465q-1.514-1.465-3.174-3.271a30.131,30.131,0,0,0-3.516-3.271,6.6,6.6,0,0,0-4.2-1.465,12.616,12.616,0,0,0-6.055,1.465,15.045,15.045,0,0,0-4.687,3.906A17.06,17.06,0,0,0,15.234,43a19.925,19.925,0,0,0-.977,6.152v.977L16.016,64.09a2.341,2.341,0,0,0,1.074.342q.879.146,2.783.391t5.078.537Q28.125,65.652,33.008,65.945ZM39.551,80.5a12.156,12.156,0,0,1,.977-3.809,14.484,14.484,0,0,1,2.734-4.2,18.758,18.758,0,0,1,4.688-3.662,20.769,20.769,0,0,1,6.689-2.295,30.2,30.2,0,0,1,8.789-.1,45.842,45.842,0,0,1,10.986,2.93v-.977l-.1-.879a10.613,10.613,0,0,0-1.465-5.176,18.7,18.7,0,0,0-3.76-4.736,21.613,21.613,0,0,0-4.932-3.418,11.343,11.343,0,0,0-5.078-1.318,4.583,4.583,0,0,0-1.709.293,8.349,8.349,0,0,0-1.416.732q-.684.439-1.318.781a3.15,3.15,0,0,1-1.514.342q-.2,0-.2-.1l-.2-.2q-.2-.2-.537-.488t-.342-.391a6.7,6.7,0,0,1,.635-3.027,5.384,5.384,0,0,1,1.758-2.051,9.174,9.174,0,0,1,2.539-1.221,9.992,9.992,0,0,1,2.979-.439,18.977,18.977,0,0,1,7.471,2.393,29.246,29.246,0,0,1,6.543,5.029A33.423,33.423,0,0,1,79,61.5a51.773,51.773,0,0,1,3.76,8.2,38.271,38.271,0,0,1,2,8.545,33.138,33.138,0,0,1,.1,8.4q-.1,0-.586-.049T83.2,86.5a6.265,6.265,0,0,1-.977-.146l-.488-.1a28.444,28.444,0,0,0-4.59-7.422,25.527,25.527,0,0,0-5.029-4.443,18.194,18.194,0,0,0-4.639-2.246q-2.148-.635-3.516-.928-1.465,0-3.467.2a33.365,33.365,0,0,0-4.15.684A32.986,32.986,0,0,0,52,73.416a18.331,18.331,0,0,0-3.906,2A9.662,9.662,0,0,0,45.361,78.2a6.851,6.851,0,0,0-1.025,3.76,5.041,5.041,0,0,0,1.855,3.955,15.153,15.153,0,0,0,4.492,2.637,24.233,24.233,0,0,0,5.371,1.416,32.625,32.625,0,0,0,4.395.391,48.606,48.606,0,0,0,5.371-.293q2.637-.293,5.225-.684t5.127-.684a44.267,44.267,0,0,1,5.078-.293h.684q.488,0,1.025.049t.977.049h.635a1.193,1.193,0,0,1,.879.879,7.117,7.117,0,0,1,.1,1.172q0,.586-1.221,1.27a20.449,20.449,0,0,1-3.174,1.367q-1.953.684-4.346,1.416t-4.59,1.221q-2.2.488-4.1.83A17.754,17.754,0,0,1,65.43,97a59.11,59.11,0,0,1-8.691-.684,29.685,29.685,0,0,1-8.4-2.49,17.079,17.079,0,0,1-6.3-5.029A13.187,13.187,0,0,1,39.551,80.5ZM53.418,41.043a5.988,5.988,0,0,1,1.563-3.906,23.04,23.04,0,0,1,3.76-3.516q2.2-1.66,4.541-3.125,2.148-1.465,3.711-2.637,2.051.977,1.807,2.344a6.862,6.862,0,0,1-2.051,3.223,63.231,63.231,0,0,1-4.736,4.3q-2.93,2.441-6.152,5.664a2.828,2.828,0,0,1-1.953-.488A2.644,2.644,0,0,1,53.418,41.043Zm36.719,34.18a21.831,21.831,0,0,1,1.66-8.35A23.8,23.8,0,0,1,96.338,59.7a22.315,22.315,0,0,1,6.689-4.98,18.267,18.267,0,0,1,8.105-1.855,21.2,21.2,0,0,1,4.15.439,16.449,16.449,0,0,1,4.15,1.416,9.367,9.367,0,0,1,3.223,2.588,6.347,6.347,0,0,1,1.27,4.053,9.707,9.707,0,0,1-.244,1.563,20.867,20.867,0,0,1-.635,2.344,11.338,11.338,0,0,1-.928,2.1q-.537.928-.928.928a11.642,11.642,0,0,0-2.539-7.666q-2.539-3.076-7.422-3.076a13.89,13.89,0,0,0-6.641,1.563,14.949,14.949,0,0,0-4.883,4.1,18.733,18.733,0,0,0-2.979,5.713A21,21,0,0,0,95.7,75.418a16.557,16.557,0,0,0,1.465,7.422,12.636,12.636,0,0,0,4,4.736,17.906,17.906,0,0,0,5.859,2.686,39.626,39.626,0,0,0,7.031,1.172,70.631,70.631,0,0,0,7.422.2q3.711-.1,7.129-.293a2.424,2.424,0,0,1,.977.391,6.506,6.506,0,0,0,.977.488v.293q0,.2.049.2t.049.1a2.261,2.261,0,0,1-1.074,1.855,9.034,9.034,0,0,1-2.637,1.27,17.646,17.646,0,0,1-3.418.684q-1.855.2-3.662.342T116.7,97.1h-1.953a37.905,37.905,0,0,1-10.205-1.27,20.164,20.164,0,0,1-7.715-3.955,17.958,17.958,0,0,1-4.932-6.836A25.053,25.053,0,0,1,90.137,75.223Zm49.219-12.012V61.746q0-1.074.049-2.246t.049-2.246V55.789q-.391-3.027,1.758-3.027a2.781,2.781,0,0,1,1.66.488,4.794,4.794,0,0,1,1.27,1.465,46.537,46.537,0,0,0,.439,9.814q.732,4.736,1.66,9.375T148,83.23a55.927,55.927,0,0,1,.83,9.766A5.231,5.231,0,0,1,148,95.73a2.725,2.725,0,0,1-2.49,1.367q-1.27,0-2.2-2.2a29.786,29.786,0,0,1-1.611-5.566q-.684-3.369-1.172-7.471T139.795,74q-.244-3.76-.342-6.738T139.355,63.211ZM134.375,38.7q0-1.172.684-1.514a3.931,3.931,0,0,1,1.758-.342,2.629,2.629,0,0,1,1.807.83,8.7,8.7,0,0,1,1.855,2.1,5.11,5.11,0,0,1,.83,2.148q.1,1.172-1.465,1.367h-.488a12.749,12.749,0,0,1-2.441-.2,3.429,3.429,0,0,1-1.514-.635,2.513,2.513,0,0,1-.781-1.318A9.547,9.547,0,0,1,134.375,38.7Zm20.313,57.52A132.752,132.752,0,0,1,153.467,82.4q-.244-6.885-.244-13.818t.2-13.77q.2-6.836.1-13.672a1.091,1.091,0,0,1,.586-1.074,3.02,3.02,0,0,1,1.367-.293,2.232,2.232,0,0,1,1.563.635,5.781,5.781,0,0,1,1.172,1.563,8.786,8.786,0,0,1,.732,1.855,6.228,6.228,0,0,1,.244,1.514q.586,13.965.781,23.291t0,15.039a74.615,74.615,0,0,1-.635,8.447,9.782,9.782,0,0,1-1.123,3.711,1.519,1.519,0,0,1-1.611.781Q155.664,96.414,154.688,96.219Z" transform="translate(-3469 -3441)" fill="#fff"/>
    <path id="Caminho_140" data-name="Caminho 140" d="M11.4,37.339a6.48,6.48,0,0,0,4.3-1.446,5.088,5.088,0,0,0,1.876-3.743h2.358a6.948,6.948,0,0,1-1.271,3.7,7.966,7.966,0,0,1-3.107,2.615,9.363,9.363,0,0,1-4.153.943,8.572,8.572,0,0,1-6.921-3.035,12.27,12.27,0,0,1-2.553-8.162v-.738a13.871,13.871,0,0,1,1.148-5.8,8.85,8.85,0,0,1,3.292-3.9A9.086,9.086,0,0,1,11.382,16.4,8.557,8.557,0,0,1,17.4,18.574,7.927,7.927,0,0,1,19.934,24.3H17.575a5.938,5.938,0,0,0-6.193-5.8,6.119,6.119,0,0,0-5.158,2.4,10.856,10.856,0,0,0-1.835,6.727v.718A10.614,10.614,0,0,0,6.224,34.96,6.161,6.161,0,0,0,11.4,37.339ZM26,27.577a13.057,13.057,0,0,1,1.241-5.763A9.32,9.32,0,0,1,35.886,16.4a9.128,9.128,0,0,1,7.178,3.107,11.972,11.972,0,0,1,2.748,8.234v.513a13.172,13.172,0,0,1-1.241,5.793,9.264,9.264,0,0,1-3.5,3.968,9.588,9.588,0,0,1-5.147,1.395A9.136,9.136,0,0,1,28.76,36.3,11.944,11.944,0,0,1,26,28.069Zm2.461.677a10.069,10.069,0,0,0,2.061,6.532,6.973,6.973,0,0,0,10.787,0,10.4,10.4,0,0,0,2.061-6.737v-.472a11.288,11.288,0,0,0-.943-4.655,7.58,7.58,0,0,0-2.646-3.271,6.76,6.76,0,0,0-3.9-1.159,6.557,6.557,0,0,0-5.353,2.574A10.417,10.417,0,0,0,28.462,27.8ZM55.735,16.811l.082,3.794a8.811,8.811,0,0,1,3.117-3.127A8.1,8.1,0,0,1,63.057,16.4a6.656,6.656,0,0,1,5.312,2.01q1.743,2.01,1.764,6.029V39h-2.44V24.419a6.779,6.779,0,0,0-1.261-4.43,4.941,4.941,0,0,0-3.968-1.456,6.207,6.207,0,0,0-4.03,1.425A8.35,8.35,0,0,0,55.838,23.8V39H53.4V16.811ZM82.8,11.13v5.681H87.4v2.01H82.8V33.606a4.625,4.625,0,0,0,.667,2.748,2.585,2.585,0,0,0,2.225.9,15.268,15.268,0,0,0,1.989-.205l.1,2.01a7.953,7.953,0,0,1-2.625.349,4.377,4.377,0,0,1-3.671-1.466,6.9,6.9,0,0,1-1.148-4.317V18.82H76.261v-2.01h4.081V11.13ZM109.01,39a11.606,11.606,0,0,1-.472-3.1,8.558,8.558,0,0,1-3.292,2.594,10.081,10.081,0,0,1-4.235.913,7.438,7.438,0,0,1-5.178-1.784,5.812,5.812,0,0,1-1.979-4.512,5.939,5.939,0,0,1,2.7-5.127q2.7-1.887,7.516-1.887h4.45V23.578a4.861,4.861,0,0,0-1.466-3.743,6.061,6.061,0,0,0-4.276-1.364,6.692,6.692,0,0,0-4.245,1.313,3.9,3.9,0,0,0-1.682,3.158l-2.461-.021a5.707,5.707,0,0,1,2.461-4.583A9.476,9.476,0,0,1,102.9,16.4a8.643,8.643,0,0,1,5.855,1.856,6.66,6.66,0,0,1,2.2,5.178v10.5a13.023,13.023,0,0,0,.677,4.819V39ZM101.3,37.236a8.239,8.239,0,0,0,4.4-1.189,7,7,0,0,0,2.82-3.179V27.987h-4.389a11,11,0,0,0-5.742,1.343,4.032,4.032,0,0,0-2.071,3.579,3.967,3.967,0,0,0,1.384,3.1A5.215,5.215,0,0,0,101.3,37.236Zm36.583-9.105a13.363,13.363,0,0,1-2.3,8.234,7.336,7.336,0,0,1-6.173,3.045,7.974,7.974,0,0,1-7.014-3.445L122.3,39H120V7.5h2.44V20.03a7.713,7.713,0,0,1,6.932-3.63,7.4,7.4,0,0,1,6.224,3q2.287,3,2.287,8.357Zm-2.461-.431a11.559,11.559,0,0,0-1.7-6.778,5.549,5.549,0,0,0-4.8-2.389,6.755,6.755,0,0,0-4,1.159,7.045,7.045,0,0,0-2.481,3.394V33.094a6.575,6.575,0,0,0,6.521,4.184,5.509,5.509,0,0,0,4.748-2.4Q135.421,32.479,135.421,27.7ZM148.564,39H146.1V16.811h2.461Zm-2.892-28.608a1.661,1.661,0,0,1,.451-1.179,1.6,1.6,0,0,1,1.23-.482,1.615,1.615,0,0,1,1.7,1.661,1.606,1.606,0,0,1-.461,1.169,1.656,1.656,0,0,1-1.241.472,1.583,1.583,0,0,1-1.682-1.641ZM160.5,39h-2.461V7.5H160.5Zm11.933,0H169.97V16.811h2.461Zm-2.892-28.608a1.661,1.661,0,0,1,.451-1.179,1.6,1.6,0,0,1,1.23-.482,1.615,1.615,0,0,1,1.7,1.661,1.606,1.606,0,0,1-.461,1.169,1.656,1.656,0,0,1-1.241.472,1.583,1.583,0,0,1-1.682-1.641ZM180.631,27.7a13.375,13.375,0,0,1,2.307-8.234A7.426,7.426,0,0,1,189.2,16.4a7.716,7.716,0,0,1,6.85,3.548V7.5h2.44V39h-2.3l-.1-2.953a7.925,7.925,0,0,1-6.932,3.363,7.4,7.4,0,0,1-6.183-3.086q-2.348-3.086-2.348-8.336Zm2.481.431a11.571,11.571,0,0,0,1.7,6.7,5.505,5.505,0,0,0,4.8,2.451,6.605,6.605,0,0,0,6.439-4V22.86a6.556,6.556,0,0,0-6.4-4.327,5.571,5.571,0,0,0-4.819,2.43Q183.113,23.394,183.113,28.131ZM221.48,39a11.606,11.606,0,0,1-.472-3.1,8.558,8.558,0,0,1-3.292,2.594,10.081,10.081,0,0,1-4.235.913,7.438,7.438,0,0,1-5.178-1.784,5.812,5.812,0,0,1-1.979-4.512,5.939,5.939,0,0,1,2.7-5.127q2.7-1.887,7.516-1.887h4.45V23.578a4.861,4.861,0,0,0-1.466-3.743,6.061,6.061,0,0,0-4.276-1.364A6.692,6.692,0,0,0,211,19.784a3.9,3.9,0,0,0-1.682,3.158l-2.461-.021a5.707,5.707,0,0,1,2.461-4.583,9.476,9.476,0,0,1,6.05-1.938,8.643,8.643,0,0,1,5.855,1.856,6.66,6.66,0,0,1,2.2,5.178v10.5a13.023,13.023,0,0,0,.677,4.819V39Zm-7.711-1.764a8.239,8.239,0,0,0,4.4-1.189,7,7,0,0,0,2.82-3.179V27.987H216.6a11,11,0,0,0-5.742,1.343,4.032,4.032,0,0,0-2.071,3.579,3.967,3.967,0,0,0,1.384,3.1A5.215,5.215,0,0,0,213.769,37.236ZM231.506,27.7a13.375,13.375,0,0,1,2.307-8.234,7.426,7.426,0,0,1,6.265-3.066,7.716,7.716,0,0,1,6.85,3.548V7.5h2.44V39h-2.3l-.1-2.953a7.925,7.925,0,0,1-6.932,3.363,7.4,7.4,0,0,1-6.183-3.086q-2.348-3.086-2.348-8.336Zm2.481.431a11.571,11.571,0,0,0,1.7,6.7,5.505,5.505,0,0,0,4.8,2.451,6.605,6.605,0,0,0,6.439-4V22.86a6.556,6.556,0,0,0-6.4-4.327,5.571,5.571,0,0,0-4.819,2.43Q233.988,23.394,233.988,28.131ZM266.941,39.41a9.632,9.632,0,0,1-5.117-1.395,9.5,9.5,0,0,1-3.558-3.886,12.116,12.116,0,0,1-1.271-5.588v-.882a13.057,13.057,0,0,1,1.241-5.763,9.871,9.871,0,0,1,3.456-4.03,8.525,8.525,0,0,1,4.8-1.466,8.012,8.012,0,0,1,6.409,2.758,11.188,11.188,0,0,1,2.369,7.537v1.374H259.435v.472a9.291,9.291,0,0,0,2.164,6.286,6.883,6.883,0,0,0,5.445,2.512,8,8,0,0,0,3.476-.718,7.71,7.71,0,0,0,2.738-2.3l1.538,1.169A8.953,8.953,0,0,1,266.941,39.41Zm-.451-20.918a6.135,6.135,0,0,0-4.666,2.03,9.379,9.379,0,0,0-2.307,5.455h13.31v-.267A8.143,8.143,0,0,0,271,20.5,5.656,5.656,0,0,0,266.49,18.492Z" transform="translate(-3583 -3326)" fill="#fff"/>
  </g>
</svg>
